<svg width="191" height="48" viewBox="0 0 191 48" fill="none" xmlns="http://www.w3.org/2000/svg">
<path d="M126.458 14.8729C126.459 15.0865 126.423 15.2985 126.35 15.4991C126.281 15.6913 126.172 15.8663 126.031 16.0127C125.884 16.1648 125.708 16.2838 125.512 16.3619C125.285 16.4496 125.043 16.4927 124.8 16.4888H123.268V10.8936H126.045V11.2543H123.649V13.3868H124.9C125.107 13.3842 125.313 13.4124 125.512 13.4704C125.692 13.5221 125.859 13.6116 126.002 13.733C126.146 13.8586 126.258 14.0168 126.33 14.1947C126.417 14.4099 126.461 14.6404 126.458 14.8729ZM126.062 14.9046C126.066 14.7217 126.036 14.5397 125.974 14.3679C125.92 14.2254 125.829 14.1 125.712 14.0043C125.585 13.9051 125.438 13.8343 125.282 13.7965C125.095 13.7513 124.904 13.729 124.712 13.7302H123.672V16.1397H124.735C124.933 16.1414 125.131 16.1092 125.319 16.0445C125.474 15.9902 125.616 15.9026 125.735 15.7876C125.843 15.6781 125.925 15.5448 125.974 15.3981C126.027 15.2392 126.054 15.0724 126.054 14.9046H126.062Z" fill="white"/>
<path d="M128.204 17.3142C128.099 17.6102 127.936 17.882 127.725 18.1135C127.636 18.2007 127.531 18.2689 127.416 18.314C127.3 18.3591 127.177 18.3802 127.053 18.3761C126.948 18.3771 126.844 18.3585 126.745 18.3213V17.9519C126.848 17.991 126.958 18.0096 127.067 18.0067C127.384 18.0067 127.637 17.7874 127.814 17.343L128.181 16.4485L126.686 12.4951H127.082L128.272 15.7473C128.298 15.8194 128.318 15.8713 128.326 15.9089C128.335 15.9464 128.349 16.0012 128.361 16.0416H128.378L128.469 15.7703L129.739 12.4951H130.127L128.204 17.3142Z" fill="white"/>
<path d="M132.313 14.5295L133.601 16.4889H133.151L132.111 14.8036H132.094L131.957 15.0258L131.892 15.1326L131.017 16.4889H130.59L131.906 14.5382L130.613 12.4951H131.017L131.895 13.9379C132.009 14.1226 132.077 14.2265 132.1 14.2813H132.114L132.311 13.9524L133.228 12.5095H133.644L132.313 14.5295Z" fill="white"/>
<path d="M134.76 12.8212V16.4889H134.406V12.4951H136.332V12.8212H134.76Z" fill="white"/>
<path d="M139.368 16.4887V15.6893H139.354C139.234 15.955 139.044 16.1818 138.804 16.3444C138.568 16.5039 138.291 16.5883 138.007 16.5868C137.845 16.5956 137.682 16.5718 137.529 16.5169C137.376 16.4619 137.235 16.3768 137.115 16.2665C137.008 16.1622 136.924 16.0366 136.867 15.8974C136.811 15.7583 136.784 15.6088 136.787 15.4585C136.787 14.7621 137.243 14.3408 138.155 14.1946L139.368 14.0128C139.368 13.1471 139.052 12.7229 138.414 12.7229C137.942 12.7391 137.492 12.9277 137.146 13.2538V12.821C137.327 12.6914 137.529 12.5939 137.742 12.5324C137.969 12.4533 138.208 12.4114 138.448 12.4083C138.623 12.3979 138.799 12.4266 138.962 12.4925C139.125 12.5583 139.271 12.6596 139.391 12.7892C139.633 13.1066 139.752 13.503 139.725 13.9031V16.5002L139.368 16.4887ZM138.283 14.5004C137.973 14.5225 137.674 14.6216 137.411 14.789C137.255 14.9558 137.166 15.1761 137.163 15.406C137.16 15.636 137.243 15.8587 137.394 16.0298C137.482 16.1092 137.585 16.1702 137.697 16.2093C137.808 16.2484 137.926 16.2649 138.044 16.2578C138.223 16.2619 138.401 16.2258 138.565 16.1519C138.729 16.0781 138.875 15.9684 138.992 15.8307C139.254 15.5218 139.388 15.1232 139.368 14.7169V14.3388L138.283 14.5004Z" fill="white"/>
<path d="M143.281 16.4887V12.8211H142.141C142.099 13.4155 142.042 13.9436 141.97 14.4053C141.911 14.7982 141.816 15.1847 141.685 15.5596C141.598 15.8282 141.454 16.0745 141.264 16.281C141.184 16.3617 141.09 16.4254 140.985 16.468C140.881 16.5107 140.769 16.5315 140.657 16.5291H140.54C140.505 16.5241 140.471 16.5163 140.438 16.506V16.1915C140.47 16.2032 140.503 16.2109 140.537 16.2146H140.651C140.74 16.2124 140.826 16.1893 140.904 16.1472C140.983 16.1052 141.05 16.0452 141.101 15.9722C141.255 15.7559 141.367 15.5121 141.432 15.2537C141.539 14.8697 141.617 14.4781 141.665 14.0821C141.728 13.6185 141.778 13.0865 141.816 12.4863H143.64V16.4887H143.281Z" fill="white"/>
<path d="M145.912 12.8212V16.4889H145.559V12.8212H144.377V12.4951H147.095V12.8212H145.912Z" fill="white"/>
<path d="M147.801 14.5059C147.774 14.9672 147.907 15.4235 148.177 15.7958C148.301 15.9483 148.459 16.0693 148.637 16.1495C148.816 16.2296 149.01 16.2666 149.205 16.2575C149.68 16.2456 150.137 16.0717 150.501 15.7641V16.1594C150.103 16.4499 149.624 16.6045 149.134 16.6009C148.9 16.609 148.668 16.5633 148.454 16.4673C148.241 16.3714 148.051 16.2276 147.9 16.0469C147.562 15.6002 147.395 15.0446 147.43 14.4829C147.41 13.9401 147.584 13.4081 147.92 12.9852C148.076 12.7963 148.272 12.646 148.494 12.546C148.715 12.4459 148.957 12.3987 149.2 12.4081C149.417 12.3938 149.635 12.434 149.834 12.5251C150.032 12.6162 150.206 12.7554 150.339 12.9304C150.622 13.3498 150.76 13.8518 150.732 14.3588V14.5175L147.801 14.5059ZM150.365 14.1799C150.374 13.7954 150.259 13.4184 150.037 13.1064C149.935 12.978 149.804 12.8762 149.656 12.8095C149.507 12.7427 149.345 12.7129 149.182 12.7226C149.012 12.7176 148.842 12.7487 148.684 12.8138C148.527 12.8789 148.384 12.9766 148.265 13.1006C148.005 13.4014 147.849 13.7807 147.824 14.1799H150.365Z" fill="white"/>
<path d="M152.029 15.7789H152.011V18.3269H151.658V12.495H152.011V13.3174H152.029C152.158 13.0336 152.37 12.7962 152.635 12.6364C152.894 12.4797 153.189 12.397 153.49 12.3969C153.713 12.3853 153.935 12.4268 154.139 12.5181C154.342 12.6093 154.522 12.7477 154.664 12.9221C154.964 13.3328 155.114 13.8371 155.085 14.3476C155.113 14.9281 154.943 15.5006 154.604 15.9694C154.454 16.1677 154.26 16.3272 154.038 16.4346C153.815 16.5419 153.571 16.5941 153.325 16.5869C153.054 16.5948 152.788 16.5226 152.557 16.379C152.327 16.2355 152.143 16.0269 152.029 15.7789ZM152.011 14.2928V14.7949C152.003 15.174 152.136 15.5424 152.382 15.828C152.504 15.9692 152.655 16.081 152.825 16.1554C152.995 16.2298 153.18 16.2648 153.365 16.2579C153.559 16.2611 153.75 16.2149 153.922 16.1236C154.093 16.0324 154.24 15.899 154.347 15.7356C154.614 15.3278 154.746 14.8448 154.723 14.3563C154.745 13.9305 154.623 13.5099 154.376 13.1645C154.266 13.0229 154.125 12.9092 153.965 12.8326C153.804 12.7559 153.628 12.7184 153.45 12.723C153.248 12.7118 153.046 12.7484 152.861 12.8301C152.676 12.9117 152.511 13.0361 152.382 13.1934C152.133 13.5033 152.001 13.8933 152.011 14.2928Z" fill="white"/>
<path d="M158.665 16.3127C158.347 16.5013 157.984 16.5963 157.616 16.5869C157.373 16.5956 157.13 16.5499 156.905 16.4532C156.681 16.3565 156.48 16.211 156.317 16.0271C155.977 15.6187 155.801 15.0952 155.824 14.5612C155.802 13.9882 156.001 13.4291 156.38 13.0029C156.56 12.8043 156.781 12.6473 157.027 12.5428C157.273 12.4382 157.538 12.3885 157.804 12.3969C158.106 12.3973 158.403 12.4612 158.679 12.5845V12.9856C158.4 12.8102 158.078 12.7182 157.75 12.7201C157.535 12.7119 157.32 12.7533 157.123 12.8413C156.925 12.9292 156.75 13.0615 156.611 13.228C156.314 13.5956 156.161 14.0608 156.18 14.5352C156.158 14.9866 156.299 15.4308 156.576 15.7847C156.703 15.9383 156.862 16.0605 157.043 16.142C157.223 16.2235 157.419 16.2622 157.616 16.255C157.985 16.2628 158.348 16.1517 158.65 15.9376L158.665 16.3127Z" fill="white"/>
<path d="M162.219 15.2942C162.223 15.4766 162.188 15.6578 162.116 15.8252C162.048 15.9688 161.951 16.0965 161.831 16.2003C161.72 16.2991 161.59 16.3738 161.45 16.4196C161.31 16.4678 161.164 16.4922 161.017 16.4918H159.504V12.4951H159.857V14.1399H160.997C161.17 14.1375 161.342 14.1638 161.507 14.2179C161.65 14.2645 161.781 14.3424 161.891 14.4458C161.997 14.5474 162.08 14.6716 162.133 14.8094C162.192 14.964 162.221 15.1286 162.219 15.2942ZM161.848 15.2942C161.85 15.1831 161.831 15.0727 161.794 14.9681C161.757 14.8677 161.697 14.777 161.621 14.7026C161.538 14.6256 161.441 14.5658 161.336 14.5266C161.204 14.4827 161.067 14.4613 160.928 14.4631H159.871V16.1599H160.928C161.073 16.1643 161.217 16.1408 161.353 16.0906C161.461 16.051 161.558 15.9869 161.638 15.9031C161.712 15.8203 161.766 15.7217 161.797 15.6145C161.829 15.5107 161.846 15.4029 161.848 15.2942Z" fill="white"/>
<path d="M165.285 16.4889L163.433 14.5295H163.416V16.4889H163.062V12.4951H163.416V14.4025H163.433L165.262 12.4951H165.72L163.809 14.4458L165.772 16.4889H165.285Z" fill="white"/>
<path d="M166.686 11.488C166.647 11.4881 166.608 11.4801 166.573 11.4645C166.537 11.4489 166.505 11.4261 166.478 11.3975C166.451 11.3688 166.431 11.3349 166.417 11.2979C166.404 11.2608 166.399 11.2215 166.401 11.1821C166.4 11.1428 166.407 11.1036 166.423 11.0676C166.439 11.0316 166.462 10.9997 166.492 10.9744C166.547 10.9229 166.619 10.8941 166.694 10.8936C166.771 10.893 166.845 10.9207 166.902 10.9715C166.932 10.9976 166.956 11.03 166.971 11.0664C166.987 11.1028 166.995 11.1424 166.993 11.1821C166.994 11.2225 166.987 11.2625 166.972 11.2998C166.957 11.3371 166.934 11.3707 166.905 11.3986C166.877 11.4278 166.842 11.4508 166.805 11.4662C166.767 11.4816 166.726 11.489 166.686 11.488ZM166.512 16.4889V12.4951H166.865V16.4889H166.512Z" fill="white"/>
<path d="M171.298 12.8212V16.4889H170.945V12.8212H169.76V12.4951H172.478V12.8212H171.298Z" fill="white"/>
<path d="M175.503 16.4888V15.6895C175.382 15.9545 175.192 16.181 174.953 16.3445C174.716 16.5045 174.437 16.589 174.152 16.5869C173.991 16.5955 173.829 16.5716 173.676 16.5167C173.524 16.4617 173.384 16.3767 173.264 16.2666C173.156 16.1628 173.071 16.0372 173.015 15.898C172.958 15.7588 172.932 15.609 172.936 15.4586C172.936 14.7622 173.392 14.3409 174.303 14.1947L175.517 14.0129C175.517 13.153 175.199 12.723 174.563 12.723C174.091 12.7388 173.64 12.9274 173.295 13.254V12.8211C173.476 12.6916 173.677 12.594 173.89 12.5326C174.118 12.4532 174.356 12.4113 174.597 12.4085C174.772 12.3977 174.947 12.4262 175.109 12.4921C175.272 12.558 175.418 12.6595 175.537 12.7894C175.779 13.1067 175.898 13.5031 175.87 13.9032V16.5003L175.503 16.4888ZM174.417 14.5006C174.108 14.5226 173.808 14.6218 173.546 14.7891C173.387 14.9549 173.298 15.1756 173.295 15.4061C173.291 15.6367 173.375 15.8598 173.529 16.03C173.617 16.1093 173.719 16.1703 173.831 16.2094C173.942 16.2486 174.06 16.265 174.178 16.2579C174.357 16.2616 174.535 16.2253 174.699 16.1515C174.863 16.0777 175.009 15.9682 175.127 15.8309C175.388 15.522 175.523 15.1233 175.503 14.717V14.339L174.417 14.5006Z" fill="white"/>
<path d="M125.547 26.0776V25.2783H125.533C125.414 25.5445 125.224 25.7715 124.983 25.9333C124.748 26.0939 124.47 26.1785 124.186 26.1757C124.024 26.1848 123.862 26.1612 123.709 26.1062C123.557 26.0512 123.417 25.9659 123.297 25.8554C123.189 25.7516 123.104 25.626 123.048 25.4868C122.992 25.3476 122.965 25.1979 122.969 25.0474C122.969 24.3529 123.425 23.9316 124.337 23.7835L125.547 23.6017C125.547 22.736 125.231 22.3118 124.593 22.3118C124.121 22.3286 123.671 22.5171 123.325 22.8428V22.4099C123.507 22.2809 123.708 22.1834 123.921 22.1214C124.148 22.0422 124.387 22.0003 124.627 21.9973C124.802 21.9867 124.978 22.0153 125.141 22.0811C125.304 22.147 125.45 22.2484 125.57 22.3782C125.812 22.6955 125.931 23.0919 125.904 23.492V26.0891L125.547 26.0776ZM124.465 24.0894C124.156 24.1108 123.857 24.21 123.596 24.3779C123.438 24.5437 123.348 24.7644 123.345 24.9949C123.342 25.2255 123.425 25.4486 123.579 25.6188C123.666 25.6983 123.769 25.7595 123.88 25.7986C123.991 25.8377 124.108 25.8541 124.226 25.8467C124.405 25.8511 124.583 25.815 124.747 25.7411C124.911 25.6673 125.057 25.5575 125.174 25.4197C125.433 25.1137 125.567 24.7198 125.55 24.3173V23.9278L124.465 24.0894Z" fill="white"/>
<path d="M127.96 26.8944C127.854 27.193 127.692 27.4676 127.481 27.7024C127.392 27.7899 127.286 27.8583 127.17 27.9034C127.054 27.9485 126.93 27.9695 126.806 27.9649C126.701 27.9656 126.597 27.947 126.498 27.9101V27.5408C126.602 27.5795 126.712 27.5981 126.823 27.5956C127.139 27.5956 127.393 27.3763 127.57 26.9319L127.937 26.046L126.441 22.084H126.837L128.028 25.3361C128.054 25.4083 128.071 25.4602 128.082 25.4977C128.094 25.5352 128.105 25.5901 128.117 25.6305H128.134L128.225 25.3592L129.495 22.084H129.877L127.96 26.8944Z" fill="white"/>
<path d="M133.189 27.1252V26.0777H130.042V27.1252H129.717V25.7517H130.064C130.239 25.4931 130.392 25.2199 130.52 24.935C130.655 24.6414 130.766 24.3375 130.853 24.026C130.945 23.71 131.014 23.388 131.061 23.0622C131.109 22.7382 131.138 22.4115 131.147 22.084H132.905V25.7517H133.511V27.1252H133.189ZM132.549 22.4043H131.472C131.449 22.6929 131.415 22.9814 131.366 23.27C131.318 23.5625 131.251 23.8517 131.167 24.1357C131.089 24.4212 130.994 24.7016 130.882 24.9754C130.766 25.2478 130.629 25.5112 130.475 25.7632H132.563L132.549 22.4043Z" fill="white"/>
<path d="M137.013 26.0777V22.739L136.954 22.8227C136.939 22.846 136.923 22.8682 136.905 22.8891L134.538 26.0777H134.287V22.084H134.64V25.3938L134.686 25.313L134.737 25.2409L137.088 22.0869H137.372V26.0777H137.013Z" fill="white"/>
<path d="M139.652 22.4101V26.0777H139.296V22.4101H138.113V22.084H140.834V22.4101H139.652Z" fill="white"/>
<path d="M143.034 26.1759C142.779 26.1878 142.524 26.1423 142.288 26.0425C142.052 25.9427 141.841 25.7911 141.67 25.5987C141.34 25.1586 141.164 24.6205 141.168 24.0683C141.172 23.516 141.357 22.9807 141.692 22.5457C141.87 22.3554 142.085 22.2055 142.323 22.106C142.562 22.0065 142.819 21.9596 143.077 21.9686C143.326 21.9588 143.575 22.0052 143.805 22.1045C144.034 22.2038 144.239 22.3535 144.405 22.5428C144.752 22.979 144.926 23.5302 144.895 24.0895C144.92 24.6366 144.746 25.174 144.405 25.5987C144.233 25.7919 144.021 25.9439 143.784 26.0437C143.547 26.1436 143.291 26.1887 143.034 26.1759ZM143.063 22.312C142.854 22.3029 142.646 22.341 142.454 22.4233C142.262 22.5057 142.091 22.6303 141.952 22.7881C141.656 23.1622 141.508 23.6342 141.536 24.1126C141.515 24.5679 141.659 25.0153 141.94 25.3708C142.077 25.5291 142.248 25.6541 142.439 25.7366C142.631 25.819 142.838 25.8567 143.046 25.8469C143.251 25.861 143.457 25.8275 143.647 25.749C143.838 25.6705 144.008 25.549 144.145 25.3938C144.421 25.0207 144.557 24.5606 144.53 24.0953C144.561 23.626 144.425 23.1609 144.145 22.7852C144.013 22.6277 143.846 22.5031 143.658 22.4211C143.471 22.339 143.267 22.3017 143.063 22.312Z" fill="white"/>
<path d="M146.212 25.3677H146.195V27.9157H145.83V22.0838H146.183V22.9062H146.2C146.332 22.6186 146.548 22.3789 146.819 22.2194C147.077 22.0627 147.372 21.98 147.673 21.9799C147.898 21.9668 148.122 22.0079 148.328 22.0997C148.534 22.1915 148.716 22.3314 148.858 22.508C149.163 22.9233 149.312 23.4345 149.28 23.9508C149.308 24.5313 149.138 25.1038 148.799 25.5726C148.649 25.7709 148.455 25.9304 148.233 26.0377C148.01 26.1451 147.766 26.1973 147.519 26.1901C147.246 26.1991 146.975 26.1257 146.743 25.9794C146.51 25.833 146.325 25.6202 146.212 25.3677ZM146.195 23.8816V24.3837C146.188 24.7631 146.321 25.1316 146.568 25.4167C146.689 25.5564 146.838 25.6674 147.006 25.7417C147.174 25.816 147.356 25.8519 147.539 25.8467C147.733 25.8498 147.925 25.8036 148.096 25.7124C148.268 25.6212 148.415 25.4877 148.522 25.3244C148.791 24.9195 148.927 24.4386 148.91 23.9508C148.933 23.5253 148.811 23.1046 148.565 22.759C148.455 22.6174 148.314 22.5037 148.154 22.4271C147.993 22.3504 147.817 22.3129 147.639 22.3175C147.437 22.3078 147.235 22.346 147.05 22.4292C146.865 22.5124 146.702 22.6382 146.574 22.7966C146.325 23.1015 146.19 23.4859 146.195 23.8816Z" fill="white"/>
<path d="M152.846 25.9016C152.529 26.0902 152.166 26.1851 151.798 26.1758C151.554 26.1844 151.311 26.1388 151.087 26.0421C150.863 25.9453 150.662 25.7999 150.499 25.6159C150.158 25.2075 149.982 24.6841 150.006 24.15C149.987 23.5751 150.192 23.0157 150.576 22.5918C150.756 22.3931 150.977 22.2362 151.223 22.1316C151.469 22.0271 151.734 21.9773 152 21.9858C152.302 21.9848 152.6 22.0487 152.875 22.1733V22.5773C152.596 22.402 152.274 22.3099 151.946 22.3119C151.733 22.3055 151.522 22.3475 151.327 22.4349C151.132 22.5223 150.959 22.6528 150.821 22.8169C150.523 23.1852 150.369 23.6513 150.388 24.1269C150.365 24.5784 150.506 25.0226 150.784 25.3764C150.909 25.5284 151.067 25.6497 151.245 25.7312C151.423 25.8127 151.617 25.8522 151.812 25.8468C152.181 25.8546 152.543 25.7434 152.846 25.5294V25.9016Z" fill="white"/>
<path d="M156.402 24.8802C156.406 25.0626 156.371 25.2437 156.3 25.4111C156.232 25.5548 156.135 25.6825 156.015 25.7863C155.903 25.8837 155.773 25.9582 155.633 26.0056C155.494 26.0538 155.348 26.0782 155.2 26.0777H153.688V22.084H154.041V23.7202H155.18C155.353 23.7187 155.526 23.746 155.69 23.801C155.833 23.8476 155.965 23.9254 156.075 24.0289C156.183 24.1292 156.266 24.2537 156.317 24.3925C156.376 24.548 156.405 24.7136 156.402 24.8802ZM156.032 24.8802C156.033 24.7691 156.015 24.6587 155.978 24.5541C155.942 24.4526 155.883 24.3614 155.804 24.2886C155.722 24.2116 155.625 24.1517 155.519 24.1126C155.388 24.0687 155.25 24.0473 155.112 24.0491H154.055V25.7517H155.118C155.262 25.7561 155.406 25.7326 155.542 25.6824C155.65 25.6428 155.747 25.5786 155.827 25.4948C155.901 25.4121 155.956 25.3134 155.987 25.2063C156.017 25.1003 156.032 24.9905 156.032 24.8802Z" fill="white"/>
<path d="M159.468 26.0777L157.616 24.1184H157.599V26.0777H157.246V22.084H157.599V23.9914H157.616L159.445 22.084H159.904L157.992 24.0347L159.967 26.0777H159.468Z" fill="white"/>
<path d="M160.869 21.0652C160.83 21.0653 160.792 21.0573 160.756 21.0417C160.721 21.0261 160.688 21.0033 160.662 20.9746C160.635 20.946 160.614 20.9121 160.601 20.8751C160.588 20.838 160.582 20.7986 160.584 20.7593C160.583 20.7199 160.59 20.6807 160.606 20.6446C160.622 20.6086 160.646 20.5768 160.676 20.5515C160.73 20.4986 160.803 20.4695 160.878 20.4707C160.954 20.4702 161.028 20.4979 161.086 20.5487C161.116 20.5747 161.139 20.6072 161.155 20.6436C161.171 20.68 161.178 20.7195 161.177 20.7593C161.178 20.7996 161.171 20.8397 161.156 20.877C161.14 20.9143 161.118 20.9479 161.089 20.9757C161.06 21.005 161.026 21.028 160.988 21.0433C160.95 21.0587 160.91 21.0662 160.869 21.0652ZM160.696 26.066V22.0838H161.049V26.0776L160.696 26.066Z" fill="white"/>
<path d="M167.153 26.0777V22.4101H164.826V26.0777H164.473V22.084H167.509V26.0777H167.153Z" fill="white"/>
<path d="M170.329 26.1758C170.074 26.1878 169.819 26.1422 169.583 26.0424C169.347 25.9426 169.136 25.7911 168.965 25.5987C168.634 25.1592 168.457 24.6208 168.461 24.0682C168.465 23.5156 168.65 22.98 168.988 22.5456C169.165 22.3554 169.38 22.2055 169.619 22.106C169.857 22.0064 170.114 21.9596 170.372 21.9685C170.621 21.9557 170.87 21.999 171.101 22.0953C171.331 22.1916 171.538 22.3385 171.705 22.5254C172.052 22.9616 172.227 23.5129 172.195 24.0721C172.219 24.6203 172.041 25.1579 171.697 25.5813C171.527 25.7773 171.316 25.9323 171.08 26.0352C170.843 26.138 170.587 26.1861 170.329 26.1758ZM170.358 22.3119C170.15 22.3029 169.942 22.3409 169.75 22.4233C169.557 22.5056 169.386 22.6302 169.247 22.788C168.951 23.1622 168.803 23.6341 168.831 24.1125C168.81 24.5678 168.954 25.0153 169.236 25.3707C169.373 25.529 169.543 25.6541 169.735 25.7365C169.926 25.8189 170.133 25.8566 170.341 25.8468C170.548 25.8623 170.755 25.8295 170.947 25.7509C171.139 25.6724 171.311 25.5502 171.449 25.3938C171.725 25.0206 171.861 24.5605 171.834 24.0952C171.865 23.6259 171.729 23.1608 171.449 22.7851C171.316 22.6276 171.15 22.5031 170.962 22.421C170.774 22.339 170.571 22.3016 170.367 22.3119H170.358Z" fill="white"/>
<path d="M175.768 25.9016C175.45 26.0906 175.087 26.1855 174.719 26.1757C174.476 26.1848 174.233 26.1393 174.009 26.0425C173.785 25.9457 173.585 25.8001 173.423 25.6159C173.081 25.2082 172.905 24.6842 172.93 24.15C172.908 23.5777 173.106 23.019 173.483 22.5917C173.663 22.3933 173.884 22.2364 174.13 22.1319C174.376 22.0273 174.641 21.9775 174.907 21.9857C175.208 21.9854 175.506 22.0493 175.782 22.1733V22.5773C175.503 22.4022 175.181 22.3102 174.853 22.3118C174.64 22.3054 174.429 22.3475 174.234 22.4349C174.039 22.5222 173.866 22.6528 173.728 22.8168C173.43 23.1849 173.277 23.6514 173.298 24.1269C173.275 24.5778 173.415 25.0216 173.691 25.3764C173.818 25.53 173.978 25.6523 174.158 25.7338C174.339 25.8153 174.536 25.8539 174.733 25.8467C175.102 25.8545 175.463 25.7434 175.765 25.5293L175.768 25.9016Z" fill="white"/>
<path d="M179.209 26.0776V22.4099H178.07C178.024 23.0044 177.967 23.5296 177.899 23.9913C177.84 24.3842 177.745 24.7707 177.614 25.1455C177.529 25.4159 177.385 25.6635 177.192 25.8698C177.114 25.9508 177.02 26.0146 176.916 26.0573C176.812 26.0999 176.701 26.1206 176.588 26.118C176.55 26.1209 176.511 26.1209 176.472 26.118L176.369 26.0949V25.7804C176.401 25.7924 176.435 25.8001 176.469 25.8035H176.58C176.669 25.8017 176.756 25.7788 176.835 25.7367C176.913 25.6946 176.981 25.6345 177.033 25.5611C177.185 25.3438 177.297 25.1003 177.363 24.8425C177.468 24.4579 177.546 24.0665 177.597 23.671C177.66 23.2073 177.71 22.6754 177.748 22.0752H179.571V26.0776H179.209Z" fill="white"/>
<path d="M181.811 26.8944C181.707 27.1933 181.545 27.468 181.335 27.7024C181.245 27.7896 181.14 27.8579 181.024 27.903C180.908 27.9481 180.784 27.9692 180.66 27.965C180.555 27.9656 180.451 27.947 180.352 27.9101V27.5408C180.456 27.5798 180.566 27.5984 180.677 27.5956C180.993 27.5956 181.247 27.3763 181.423 26.9319L181.788 26.046L180.301 22.084H180.697L181.888 25.3361C181.913 25.4083 181.93 25.4602 181.942 25.4977C181.949 25.5429 181.961 25.5873 181.976 25.6305L182.07 25.3592L183.34 22.084H183.725L181.811 26.8944Z" fill="white"/>
<path d="M184.807 22.4101V26.0777H184.451V22.084H186.377V22.4101H184.807Z" fill="white"/>
<path d="M189.852 26.0777V22.739L189.795 22.8227L189.746 22.8891L187.376 26.0777H187.137V22.084H187.493V25.3938C187.506 25.3659 187.522 25.339 187.538 25.313C187.553 25.2879 187.569 25.2638 187.587 25.2409L189.937 22.0869H190.222V26.0777H189.852Z" fill="white"/>
<path d="M125.809 34.5558C125.809 34.7091 125.78 34.8609 125.723 35.0031C125.662 35.1552 125.564 35.2892 125.438 35.3927C125.285 35.5165 125.109 35.6087 124.92 35.6639C124.662 35.7366 124.395 35.7706 124.128 35.7649C124.017 35.7651 123.907 35.7584 123.797 35.7447C123.683 35.7325 123.569 35.7142 123.456 35.6899C123.349 35.6689 123.243 35.6409 123.139 35.6062C123.052 35.5801 122.968 35.5443 122.889 35.4995V35.1243C122.98 35.1763 123.075 35.2206 123.174 35.2571C123.278 35.2971 123.384 35.3299 123.493 35.3552C123.6 35.3809 123.708 35.4012 123.817 35.4158C123.921 35.4294 124.026 35.4362 124.131 35.436C124.345 35.4408 124.558 35.4175 124.766 35.3667C124.91 35.3308 125.046 35.2682 125.168 35.182C125.26 35.1141 125.331 35.021 125.373 34.9137C125.413 34.8137 125.433 34.7069 125.433 34.5991C125.437 34.4606 125.406 34.3234 125.342 34.2009C125.28 34.0929 125.19 34.004 125.082 33.9441C124.956 33.8727 124.818 33.8257 124.675 33.8056C124.497 33.7787 124.317 33.7662 124.136 33.7681H123.609V33.4391H124.099C124.396 33.4588 124.693 33.3928 124.954 33.2486C125.049 33.1823 125.125 33.092 125.175 32.9868C125.225 32.8815 125.247 32.7649 125.239 32.6484C125.239 32.5491 125.218 32.4509 125.179 32.3599C125.136 32.2664 125.07 32.1851 124.988 32.1232C124.892 32.0504 124.783 31.9974 124.666 31.9674C124.514 31.9292 124.357 31.9108 124.199 31.9126C123.982 31.913 123.765 31.9421 123.555 31.9991C123.354 32.0513 123.157 32.1218 122.968 32.2098V31.8577L123.222 31.7625C123.316 31.7308 123.419 31.7019 123.527 31.676C123.64 31.6485 123.756 31.6273 123.872 31.6125C123.995 31.595 124.12 31.5863 124.245 31.5865C124.46 31.5814 124.674 31.6107 124.88 31.6731C125.035 31.7224 125.179 31.8017 125.304 31.9068C125.408 31.9954 125.49 32.1083 125.541 32.2358C125.585 32.3548 125.606 32.481 125.604 32.608C125.612 32.8413 125.535 33.0694 125.387 33.2486C125.23 33.4266 125.014 33.5414 124.78 33.5718V33.5891C124.929 33.5937 125.076 33.625 125.213 33.6815C125.332 33.7293 125.44 33.7998 125.532 33.8893C125.618 33.9706 125.686 34.0688 125.732 34.1778C125.782 34.2975 125.808 34.426 125.809 34.5558Z" fill="white"/>
<path d="M128.693 35.6668V35.4071C128.692 35.2492 128.706 35.0916 128.736 34.9367C128.763 34.8028 128.806 34.6729 128.864 34.55C128.925 34.4329 128.997 34.3226 129.081 34.2211C129.174 34.111 129.275 34.0079 129.383 33.9123C129.497 33.8113 129.625 33.7045 129.77 33.5978L130.246 33.2457C130.414 33.1216 130.568 33.0004 130.713 32.8821C130.854 32.7673 130.982 32.6377 131.095 32.4954C131.201 32.3565 131.288 32.203 131.351 32.0395C131.418 31.8549 131.45 31.659 131.445 31.4624C131.458 31.3063 131.437 31.1492 131.383 31.0023C131.33 30.8554 131.245 30.7222 131.135 30.6121C131.025 30.5021 130.892 30.4178 130.747 30.3653C130.601 30.3127 130.446 30.2932 130.292 30.3081C130.045 30.3082 129.802 30.3644 129.579 30.4726C129.337 30.593 129.112 30.7464 128.91 30.9285V30.5072C129.118 30.3469 129.347 30.2168 129.591 30.1205C129.835 30.0283 130.094 29.9813 130.354 29.982C130.559 29.9798 130.762 30.014 130.955 30.083C131.127 30.145 131.283 30.2434 131.414 30.3716C131.54 30.5001 131.637 30.6546 131.699 30.8246C131.768 31.009 131.803 31.2047 131.802 31.4018C131.807 31.6354 131.77 31.8681 131.693 32.0886C131.621 32.2835 131.52 32.4664 131.394 32.6311C131.265 32.797 131.116 32.9471 130.953 33.0783C130.785 33.214 130.608 33.3669 130.42 33.4852C130.172 33.667 129.961 33.8257 129.787 33.9642C129.635 34.0851 129.494 34.2214 129.369 34.3711C129.268 34.4928 129.189 34.6315 129.135 34.7809C129.085 34.9383 129.061 35.1031 129.064 35.2686V35.3292H131.81V35.6552L128.693 35.6668Z" fill="white"/>
<path d="M134.229 35.7647C133.985 35.7678 133.745 35.7032 133.535 35.5781C133.325 35.453 133.152 35.2721 133.036 35.0548C132.751 34.5816 132.605 33.9006 132.605 32.9916C132.605 31.9932 132.756 31.2419 133.058 30.7379C133.183 30.5029 133.37 30.3075 133.598 30.1736C133.826 30.0396 134.086 29.9722 134.349 29.979C135.413 29.979 135.944 30.9351 135.944 32.8473C135.944 33.8092 135.794 34.5335 135.494 35.0202C135.37 35.2486 135.186 35.4384 134.963 35.5695C134.741 35.7006 134.487 35.7681 134.229 35.7647ZM134.318 30.3051C134.108 30.3075 133.903 30.371 133.727 30.4882C133.552 30.6054 133.414 30.7712 133.329 30.9659C133.057 31.5868 132.936 32.2645 132.976 32.9425C132.942 33.5776 133.058 34.2118 133.315 34.7922C133.393 34.9848 133.525 35.1495 133.696 35.2654C133.866 35.3814 134.067 35.4433 134.272 35.4433C134.477 35.4433 134.678 35.3814 134.849 35.2654C135.019 35.1495 135.152 34.9848 135.229 34.7922C135.491 34.1969 135.609 33.5471 135.574 32.8964C135.574 31.165 135.155 30.2993 134.318 30.2993V30.3051Z" fill="white"/>
<path d="M138.424 35.7648C138.18 35.7678 137.94 35.7033 137.729 35.5782C137.519 35.4531 137.346 35.2722 137.23 35.0549C136.945 34.5817 136.797 33.9007 136.797 32.9917C136.797 31.9932 136.948 31.242 137.25 30.738C137.375 30.5025 137.562 30.3069 137.79 30.1729C138.019 30.0389 138.279 29.9718 138.543 29.9791C139.607 29.9791 140.139 30.9352 140.139 32.8474C140.139 33.8093 139.988 34.5336 139.686 35.0203C139.563 35.2497 139.38 35.4405 139.158 35.5718C138.935 35.7031 138.681 35.7699 138.424 35.7648ZM138.512 30.3051C138.302 30.3072 138.097 30.3706 137.921 30.4878C137.746 30.6051 137.608 30.7711 137.523 30.9659C137.25 31.5866 137.128 32.2644 137.167 32.9426C137.135 33.5776 137.251 34.2114 137.506 34.7923C137.585 34.9846 137.717 35.149 137.888 35.2647C138.059 35.3804 138.26 35.4422 138.465 35.4422C138.67 35.4422 138.871 35.3804 139.042 35.2647C139.212 35.149 139.345 34.9846 139.423 34.7923C139.681 34.202 139.799 33.5585 139.765 32.9138C139.765 31.1708 139.348 30.2994 138.512 30.2994V30.3051Z" fill="white"/>
<path d="M140.701 35.6663V35.4066C140.7 35.2487 140.714 35.0911 140.744 34.9362C140.77 34.8019 140.814 34.6718 140.875 34.5496C140.933 34.4319 141.005 34.3215 141.089 34.2206C141.184 34.112 141.284 34.0089 141.391 33.9118C141.505 33.8108 141.633 33.7041 141.778 33.5973L142.254 33.2452C142.421 33.1221 142.578 33.0009 142.724 32.8817C142.863 32.7668 142.991 32.6372 143.103 32.495C143.211 32.3574 143.298 32.2036 143.359 32.039C143.426 31.8544 143.458 31.6586 143.453 31.4619C143.466 31.307 143.446 31.1511 143.393 31.0051C143.34 30.8591 143.257 30.7265 143.148 30.6165C143.04 30.5066 142.909 30.422 142.765 30.3687C142.621 30.3153 142.467 30.2945 142.314 30.3076C142.066 30.3077 141.822 30.3639 141.599 30.4721C141.356 30.5925 141.131 30.7459 140.929 30.9281V30.5068C141.137 30.3465 141.366 30.2163 141.61 30.1201C141.854 30.0278 142.113 29.9809 142.374 29.9816C142.578 29.9791 142.782 30.0133 142.975 30.0826C143.147 30.1452 143.304 30.2435 143.436 30.3711C143.561 30.5002 143.658 30.6546 143.721 30.8242C143.792 31.008 143.828 31.2039 143.826 31.4013C143.831 31.6352 143.793 31.8678 143.715 32.0881C143.644 32.2836 143.543 32.4667 143.416 32.6306C143.287 32.7972 143.139 32.9474 142.975 33.0779C142.809 33.2135 142.63 33.3664 142.442 33.4848C142.194 33.6666 141.983 33.8253 141.812 33.9638C141.658 34.0839 141.517 34.2203 141.391 34.3707C141.29 34.4923 141.211 34.631 141.157 34.7804C141.108 34.9381 141.084 35.1027 141.086 35.2681V35.3287H143.835V35.6548L140.701 35.6663Z" fill="white"/>
<path d="M147.56 34.9571H147.54V37.5138H147.184V31.6733H147.54V32.4957H147.554C147.685 32.213 147.897 31.9761 148.161 31.8146C148.419 31.6584 148.714 31.5756 149.015 31.5751C149.238 31.5636 149.46 31.6051 149.664 31.6963C149.868 31.7875 150.048 31.9259 150.189 32.1003C150.488 32.5116 150.638 33.0155 150.611 33.5258C150.637 34.1066 150.466 34.6791 150.126 35.1476C149.978 35.3461 149.784 35.5057 149.562 35.6131C149.34 35.7205 149.096 35.7726 148.85 35.7651C148.581 35.7719 148.315 35.6991 148.086 35.5556C147.857 35.4122 147.674 35.2042 147.56 34.9571ZM147.54 33.4739V33.976C147.531 34.3557 147.664 34.7247 147.913 35.0091C148.034 35.1508 148.186 35.263 148.356 35.3374C148.526 35.4118 148.711 35.4466 148.896 35.439C149.089 35.4417 149.28 35.3953 149.451 35.3041C149.622 35.2128 149.768 35.0797 149.876 34.9167C150.145 34.51 150.278 34.0264 150.255 33.5374C150.277 33.1115 150.154 32.6908 149.907 32.3456C149.799 32.2032 149.659 32.0889 149.498 32.0121C149.338 31.9353 149.161 31.8983 148.984 31.9041C148.782 31.8926 148.58 31.9292 148.395 32.0109C148.209 32.0926 148.045 32.2171 147.916 32.3745C147.666 32.6842 147.532 33.0739 147.54 33.4739Z" fill="white"/>
<path d="M153.236 35.7651C152.98 35.7771 152.725 35.7316 152.489 35.6318C152.252 35.5321 152.041 35.3805 151.869 35.188C151.54 34.7479 151.363 34.2098 151.367 33.6576C151.371 33.1053 151.556 32.57 151.892 32.135C152.069 31.9447 152.284 31.7948 152.523 31.6953C152.761 31.5958 153.018 31.5489 153.276 31.5579C153.525 31.5451 153.774 31.5884 154.005 31.6847C154.235 31.781 154.442 31.9279 154.609 32.1148C154.958 32.5503 155.132 33.102 155.099 33.6615C155.124 34.2098 154.946 34.7478 154.601 35.1707C154.431 35.3664 154.221 35.5213 153.985 35.6242C153.749 35.727 153.493 35.7752 153.236 35.7651ZM153.262 31.9012C153.054 31.8922 152.846 31.9303 152.654 32.0126C152.461 32.095 152.29 32.2196 152.151 32.3774C151.856 32.7518 151.709 33.2238 151.738 33.7019C151.715 34.1574 151.859 34.6053 152.142 34.96C152.278 35.1172 152.447 35.2415 152.636 35.3239C152.825 35.4063 153.03 35.4446 153.236 35.4362C153.442 35.4483 153.648 35.4124 153.838 35.3314C154.028 35.2504 154.198 35.1263 154.333 34.9687C154.581 34.582 154.712 34.131 154.712 33.6702C154.712 33.2093 154.581 32.7583 154.333 32.3716C154.2 32.2151 154.033 32.0915 153.845 32.01C153.658 31.9285 153.454 31.8913 153.251 31.9012H153.262Z" fill="white"/>
<path d="M158.265 35.6666L156.413 33.7072H156.396V35.6666H156.043V31.6729H156.396V33.5803H156.413L158.242 31.6729H158.701L156.789 33.6236L158.761 35.6666H158.265Z" fill="white"/>
<path d="M160.71 36.4831C160.606 36.7798 160.443 37.0518 160.231 37.2824C160.142 37.3696 160.037 37.4378 159.921 37.4829C159.806 37.528 159.683 37.5492 159.559 37.545C159.454 37.546 159.35 37.5275 159.251 37.4902V37.1295C159.354 37.1685 159.463 37.1872 159.573 37.1843C159.889 37.1843 160.143 36.965 160.322 36.5206L160.687 35.6347L159.191 31.6727H159.59L160.778 34.9162C160.804 34.9883 160.824 35.0403 160.832 35.0778C160.842 35.1227 160.855 35.167 160.869 35.2105H160.884L160.975 34.9393L162.248 31.6641H162.638L160.71 36.4831Z" fill="white"/>
<path d="M117.37 5.17383H116.516V43.2645H117.37V5.17383Z" fill="white"/>
<path d="M16.4433 39.8625C13.7891 39.8624 11.1796 39.1695 8.86672 37.8504C6.55385 36.5314 4.61564 34.6308 3.23911 32.332C1.86259 30.0332 1.09421 27.4138 1.00813 24.7267C0.922041 22.0395 1.52115 19.3752 2.74765 16.9908C3.97415 14.6065 5.78664 12.5826 8.01023 11.1144C10.2338 9.64628 12.7934 8.78341 15.4421 8.60909C18.0908 8.43477 20.7391 8.95489 23.1316 10.1193C25.524 11.2836 27.5798 13.0529 29.1006 15.2565L26.7674 16.9128C25.2277 14.6797 23.0228 13.0043 20.4754 12.132C17.928 11.2596 15.1718 11.236 12.6102 12.0647C10.0486 12.8933 7.81603 14.5307 6.23931 16.7372C4.66259 18.9437 3.82446 21.6034 3.84759 24.3272C3.87071 27.0509 4.75388 29.6957 6.36783 31.8744C7.98177 34.053 10.2418 35.6513 12.8171 36.4352C15.3924 37.2191 18.1478 37.1475 20.68 36.2309C23.2122 35.3143 25.3884 33.6008 26.8899 31.3411L29.2516 32.9542C27.8393 35.0809 25.9324 36.8234 23.6989 38.028C21.4654 39.2327 18.9737 39.8627 16.4433 39.8625Z" fill="white"/>
<path d="M97.7754 39.8625C95.1211 39.8624 92.5116 39.1695 90.1987 37.8504C87.8859 36.5314 85.9477 34.6308 84.5711 32.332C83.1946 30.0332 82.4262 27.4138 82.3402 24.7267C82.2541 22.0395 82.8532 19.3752 84.0797 16.9908C85.3062 14.6065 87.1187 12.5826 89.3423 11.1144C91.5658 9.64628 94.1255 8.78341 96.7741 8.60909C99.4228 8.43477 102.071 8.95489 104.464 10.1193C106.856 11.2836 108.912 13.0529 110.433 15.2565L108.099 16.9128C106.56 14.6797 104.355 13.0043 101.807 12.132C99.26 11.2596 96.5038 11.236 93.9422 12.0647C91.3806 12.8933 89.1481 14.5307 87.5713 16.7372C85.9946 18.9437 85.1565 21.6034 85.1796 24.3272C85.2027 27.0509 86.0859 29.6957 87.6999 31.8744C89.3138 34.053 91.5738 35.6513 94.1491 36.4352C96.7244 37.2191 99.4798 37.1475 102.012 36.2309C104.544 35.3143 106.72 33.6008 108.222 31.3411L110.584 32.9542C109.171 35.0809 107.264 36.8234 105.031 38.028C102.797 39.2327 100.306 39.8627 97.7754 39.8625Z" fill="white"/>
<path d="M59.8576 39.6287H57.0088V11.6898H36.7082V39.6287H33.8594V8.80127H59.8576V39.6287Z" fill="white"/>
<path d="M53.2207 39.6605L69.0402 8.74072L84.8169 39.6605H53.2207Z" fill="#E3ED15"/>
</svg>
